# xmcd
#
# Track frame offsets: 
#        150
#        16152
#        30894
#        47193
#        65538
#        78745
#        97815
#        113353
#        142204
#        153874
#        180762
#        197530
#
# Disc length: 2821 seconds
#
# Revision: 0
# Processed by: cddbd v1.5.2PL0 Copyright (c) Steve Scherf et al.
# Submitted via: ExactAudioCopy v0.95b4
#
DISCID=860b030c
DTITLE=Peter Cooper - Cautionary Tales
DYEAR=2007
DGENRE=Country
TTITLE0=Boy Genius
TTITLE1=All The Way To Heaven
TTITLE2=Wine
TTITLE3=Couple Of Lies
TTITLE4=Take Care
TTITLE5=Mission Door
TTITLE6=They Hate Me
TTITLE7=715
TTITLE8=Sheboygan
TTITLE9=One Boy One
TTITLE10=Andalusia
TTITLE11=Thin Wild Mercury
EXTD=
EXTT0=
EXTT1=
EXTT2=
EXTT3=
EXTT4=
EXTT5=
EXTT6=
EXTT7=
EXTT8=
EXTT9=
EXTT10=
EXTT11=
PLAYORDER=
